<svg xmlns="http://www.w3.org/2000/svg" width="288" height="102.4" viewBox="0 0 288 102.4"><g fill="#4C5D6D"><path d="M0 14.9h20.2v55h35.3v17.7H0V14.9zM64 14.9h21.3L102.7 43 120 14.9h21.3v72.8h-20.1v-42l-18.7 28.5h-.4L83.9 46v41.6H64V14.9zM148.8 76.8L160 63.3c7.1 5.7 15.2 8.8 23.6 8.8 5.5 0 8.3-1.9 8.3-5v-.2c0-3-2.4-4.6-12.2-7-15.4-3.6-27.4-7.8-27.4-22.8v-.2c0-13.5 10.7-23.3 28.2-23.3 12.4 0 22.1 3.3 29.9 9.6l-10.1 14.3c-6.7-4.6-13.9-7.1-20.4-7.1-4.9 0-7.2 2-7.2 4.6v.2c0 3.3 2.5 4.8 12.6 7.1 16.8 3.7 27.1 9 27.1 22.7v.1c0 14.9-11.8 23.8-29.5 23.8-12.9 0-25.1-4.1-34.1-12.1z"/></g><path fill="#F3702B" d="M250.8 8.2c0 4.5-3.8 8.2-8.3 8.2-4.6 0-8.3-3.7-8.3-8.2S238 0 242.5 0c4.5 0 8.3 3.7 8.3 8.2zM250.8 29.7c0 4.5-3.8 8.2-8.3 8.2-4.6 0-8.3-3.7-8.3-8.2s3.8-8.2 8.3-8.2c4.5 0 8.3 3.7 8.3 8.2zM250.8 51.2c0 4.5-3.8 8.2-8.3 8.2-4.6 0-8.3-3.7-8.3-8.2s3.8-8.2 8.3-8.2c4.5 0 8.3 3.7 8.3 8.2zM250.8 72.7c0 4.5-3.8 8.2-8.3 8.2-4.6 0-8.3-3.7-8.3-8.2s3.8-8.2 8.3-8.2c4.5 0 8.3 3.7 8.3 8.2zM251.3 94.2c0 4.5-3.8 8.2-8.3 8.2-4.6 0-8.3-3.7-8.3-8.2 0-4.5 3.8-8.2 8.3-8.2 4.5 0 8.3 3.7 8.3 8.2z"/><path fill="#EEC559" d="M288 29.7c0 4.5-3.8 8.2-8.3 8.2-4.6 0-8.3-3.7-8.3-8.2s3.8-8.2 8.3-8.2c4.5 0 8.3 3.7 8.3 8.2zM288 51.2c0 4.5-3.8 8.2-8.3 8.2-4.6 0-8.3-3.7-8.3-8.2s3.8-8.2 8.3-8.2c4.5 0 8.3 3.7 8.3 8.2zM288 72.7c0 4.5-3.8 8.2-8.3 8.2-4.6 0-8.3-3.7-8.3-8.2s3.8-8.2 8.3-8.2c4.5 0 8.3 3.7 8.3 8.2z"/><path fill="#F99B1C" d="M269.3 18.9c0 4.5-3.8 8.2-8.3 8.2-4.6 0-8.3-3.7-8.3-8.2 0-4.5 3.8-8.2 8.3-8.2 4.7 0 8.3 3.7 8.3 8.2zM269.3 40.4c0 4.5-3.8 8.2-8.3 8.2-4.6 0-8.3-3.7-8.3-8.2s3.8-8.2 8.3-8.2c4.7 0 8.3 3.7 8.3 8.2zM269.3 61.9c0 4.5-3.8 8.2-8.3 8.2-4.6 0-8.3-3.7-8.3-8.2s3.8-8.2 8.3-8.2c4.7 0 8.3 3.7 8.3 8.2zM269.3 83.4c0 4.5-3.8 8.2-8.3 8.2-4.6 0-8.3-3.7-8.3-8.2s3.8-8.2 8.3-8.2c4.7 0 8.3 3.7 8.3 8.2z"/></svg>